<?xml version="1.0" standalone="no"?>
<!DOCTYPE svg PUBLIC "-//W3C//DTD SVG 1.1//EN" "http://www.w3.org/Graphics/SVG/1.1/DTD/svg11.dtd" >
<svg xmlns="http://www.w3.org/2000/svg" xmlns:xlink="http://www.w3.org/1999/xlink" version="1.1">
<metadata></metadata>
<defs>
<font id="esphimereregular" horiz-adv-x="1316" >
<font-face units-per-em="2048" ascent="1638" descent="-410" />
<missing-glyph horiz-adv-x="464" />
<glyph unicode="&#xfb03;" horiz-adv-x="1966" d="M63 954v150h148v133q0 324 375 324l180 -23v-141l-172 6q-203 0 -203 -172v-127h615v133q0 324 374 324l181 -23v-141l-172 6q-203 0 -203 -172v-127h665v-1096h-178v946h-487v-946h-180v946h-615v-946h-180v946h-148zM1673 1382v179h178v-179h-178z" />
<glyph unicode="&#xfb04;" horiz-adv-x="2093" d="M63 954v150h148v133q0 324 375 324l180 -23v-141l-172 6q-203 0 -203 -172v-127h615v133q0 324 374 324h21l229 -25l185 -16v-1182q0 -154 112 -154l162 6v-161l-162 -23q-291 0 -291 336v1030l-219 31h-28q-203 0 -203 -172v-127h303v-150h-303v-946h-180v946h-615v-946 h-180v946h-148z" />
<glyph unicode="&#xd;" horiz-adv-x="1091" />
<glyph horiz-adv-x="0" />
<glyph horiz-adv-x="0" />
<glyph unicode=" "  horiz-adv-x="464" />
<glyph unicode="&#x09;" horiz-adv-x="464" />
<glyph unicode="&#xa0;" horiz-adv-x="464" />
<glyph unicode="!" horiz-adv-x="526" d="M180 8v193h199v-193h-199zM180 1524h199l-12 -1084h-174z" />
<glyph unicode="&#x22;" horiz-adv-x="776" d="M104 1329v246h189v-246l-43 -287h-103zM483 1329v246h187v-246l-43 -287h-101z" />
<glyph unicode="#" horiz-adv-x="1470" d="M66 434l2 154h280l29 370h-266v152h280l29 342l176 2l-29 -344h383l29 342l178 2l-31 -344h252v-152h-264l-31 -370h250v-154h-264l-33 -387h-172l29 387h-381l-31 -387h-182l33 387h-266zM524 608h383l29 371h-383z" />
<glyph unicode="$" horiz-adv-x="1245" d="M135 1049v157q0 285 422 310v104h152v-107l358 -16v-162l-358 4v-501l43 -13q369 -92 370 -356v-127q2 -322 -413 -338v-110h-152v112l-399 17v161l399 -4v512l-88 29q-317 94 -334 328zM317 1049q10 -109 228 -164l12 -4v456q-240 -16 -240 -131v-157zM709 182 q221 18 227 160v127q0 113 -227 174v-461z" />
<glyph unicode="%" horiz-adv-x="1732" d="M102 1083v103q0 328 324 327q326 0 326 -327v-103q0 -307 -326 -307q-324 0 -324 307zM246 1079q0 -166 174 -166q190 0 190 166v103q0 195 -190 194q-174 0 -174 -194v-103zM256 2l1024 1516h172l-1024 -1516h-172zM981 305v103q0 328 324 327q326 0 325 -327v-103 q0 -307 -325 -307q-324 0 -324 307zM1124 301q0 -166 174 -166q190 0 191 166v102q0 195 -191 195q-174 0 -174 -195v-102z" />
<glyph unicode="&#x26;" horiz-adv-x="1406" d="M154 354q-25 346 225 406v8q-211 55 -189 401q14 172 95 258q84 94 420 93l204 -33v-168l-204 16q-182 0 -238 -41q-131 -94 -84 -327q47 -119 190 -119h357v231h178v-231h225v-172h-225v-381q6 -125 100 -129l131 6v-141l-163 -23q-72 0 -125 27q-15 12 -27 26 q-152 -45 -317 -57q-377 -2 -459 92q-80 80 -94 258zM352 532q-49 -211 76 -305q80 -39 279 -39q120 -2 231 25q-8 49 -8 102v361h-352q-176 -6 -226 -144z" />
<glyph unicode="'" horiz-adv-x="405" d="M109 1329v246h188v-246l-43 -287h-102z" />
<glyph unicode="(" horiz-adv-x="610" d="M170 713q0 485 211 975h162q-182 -479 -183 -961q0 -506 187 -997h-176q-201 489 -201 983z" />
<glyph unicode=")" horiz-adv-x="634" d="M82 1688h176q201 -489 201 -983q0 -506 -211 -975h-162q182 459 182 960q0 506 -186 998z" />
<glyph unicode="*" horiz-adv-x="755" d="M33 1169l37 109l247 -88v264h117v-264l246 88l37 -109l-232 -86l146 -213l-92 -69l-160 233l-168 -233l-92 69l155 211z" />
<glyph unicode="+" horiz-adv-x="989" d="M35 655v174h356v392h176v-392h355v-174h-355v-389h-176v389h-356z" />
<glyph unicode="," horiz-adv-x="391" d="M23 -233l114 432h178l-118 -432h-174z" />
<glyph unicode="-" horiz-adv-x="661" d="M39 489v179h541v-179h-541z" />
<glyph unicode="." horiz-adv-x="344" d="M68 8v178h178v-178h-178z" />
<glyph unicode="/" horiz-adv-x="778" d="M53 8l516 1530h191l-516 -1530h-191z" />
<glyph unicode="0" horiz-adv-x="1187" d="M113 618v289q20 612 456 613h70q416 -1 436 -613v-289q-20 -610 -436 -610h-70q-436 0 -456 610zM299 623q20 -451 270 -451h70q225 0 246 451v278q-20 449 -246 449h-70q-250 0 -270 -449v-278z" />
<glyph unicode="1" horiz-adv-x="806" d="M113 1223v188l479 102h102v-1509h-188v1303z" />
<glyph unicode="2" horiz-adv-x="1187" d="M113 4v129q16 211 159 359l433 376q147 123 157 213v52q-8 121 -133 182q-72 29 -154 35q-211 0 -421 -9v170q209 23 417 25q111 0 226 -47q256 -106 264 -356v-52q-14 -152 -232 -344l-413 -362q-88 -98 -103 -193h762v-178h-962z" />
<glyph unicode="3" horiz-adv-x="1210" d="M113 37v168l407 -17q199 0 279 39q125 74 75 305q-49 138 -225 144h-344v172h348q143 0 191 98q47 254 -84 348q-55 41 -238 41l-366 -16v168l366 33q336 2 420 -93q80 -86 94 -258q23 -346 -188 -401v-8q250 -59 225 -426q-14 -158 -94 -238q-82 -94 -459 -92z" />
<glyph unicode="4" horiz-adv-x="1249" d="M113 360v111q0 51 22 88l617 916q37 45 88 45h131v-994h166v-166h-166v-352h-176v352h-682zM332 526h463v680h-27l-436 -653v-27z" />
<glyph unicode="5" horiz-adv-x="1187" d="M113 45v172l491 -27q291 0 291 252v82q0 246 -289 246l-440 -35q-49 0 -53 43v740h911v-177h-723v-415l305 16q469 0 469 -418v-82q0 -440 -469 -440z" />
<glyph unicode="6" horiz-adv-x="1187" d="M113 496v559q2 469 434 469q195 -8 387 -43v-162q-193 27 -387 27q-254 0 -256 -291v-172q227 94 375 94q408 0 409 -469v-12q-2 -487 -413 -490h-115q-432 2 -434 490zM291 496q16 -309 256 -312h115q233 2 235 312v12q-2 291 -231 291q-148 -1 -375 -99v-204z" />
<glyph unicode="7" horiz-adv-x="1218" d="M113 1341v179h856q137 -1 98 -97l-553 -1415h-199l521 1333h-723z" />
<glyph unicode="8" horiz-adv-x="1187" d="M113 391v103q-1 247 192 290v13q-164 86 -164 319v41q0 375 439 375h26q444 0 445 -375v-61q0 -213 -168 -299v-15q193 -41 192 -288v-103q0 -391 -469 -391h-26q-467 0 -467 391zM291 389q4 -211 289 -211h26q289 0 289 213v103q0 217 -289 217h-26q-287 0 -289 -217 v-105zM313 1096q0 -217 267 -217h26q268 0 268 217v61q0 199 -268 199h-26q-266 0 -267 -199v-61z" />
<glyph unicode="9" horiz-adv-x="1187" d="M113 1022v12q2 487 413 490h115q432 -2 434 -490v-559q-2 -469 -434 -469q-203 10 -408 43v162q205 -25 408 -27q254 0 256 291v172q-225 -94 -375 -94q-408 0 -409 469zM291 1022q2 -291 231 -291q150 0 375 98v205q-16 309 -256 312h-115q-233 -2 -235 -312v-12z" />
<glyph unicode=":" horiz-adv-x="444" d="M133 8v178h178v-178h-178zM133 821v180h178v-180h-178z" />
<glyph unicode=";" horiz-adv-x="491" d="M74 -233l114 432h179l-119 -432h-174zM190 834v180h179v-180h-179z" />
<glyph unicode="&#x3c;" horiz-adv-x="1015" d="M47 616v222l879 354l2 -188l-723 -277l723 -266l-2 -199z" />
<glyph unicode="=" horiz-adv-x="1120" d="M102 432v178h895v-178h-895zM102 842v178h895v-178h-895z" />
<glyph unicode="&#x3e;" horiz-adv-x="1052" d="M129 461l723 266l-723 277l2 188l879 -354v-222l-879 -354z" />
<glyph unicode="?" horiz-adv-x="1069" d="M98 1305v174q225 39 451 39q420 -4 420 -344v-70q0 -193 -226 -313q-172 -78 -172 -254v-127h-184v133q0 229 234 370q162 84 161 191v70q0 152 -243 151q-219 0 -441 -20zM391 4v178h178v-178h-178z" />
<glyph unicode="@" horiz-adv-x="2166" d="M121 651q0 498 215 701.5t729 203.5q512 0 727 -203.5t215 -701.5q-35 -487 -477 -487h-29q-250 23 -250 143v4l4 33q-156 -147 -325 -151q-256 18 -256 268q0 156 2 315q25 315 332 336q143 0 276 -158l12 154h164l-39 -735v-2q0 -31 88 -54q293 0 312 334 q0 424 -160 575.5t-596 151.5q-438 0 -598 -151.5t-160 -575.5q0 -422 160 -573.5t598 -151.5h18v-178h-18q-514 0 -729 204t-215 699zM844 432q0 -92 82 -92q6 0 12 2q172 0 319 186l11 271q-139 164 -246 164q-8 0 -16 -2q-141 -10 -158 -201q-4 -168 -4 -328z" />
<glyph unicode="A" d="M23 4l483 1423q31 90 98 91h103q68 0 98 -91l483 -1423h-178l-131 363h-643l-135 -363h-178zM393 545h529l-244 721h-37z" />
<glyph unicode="B" horiz-adv-x="1345" d="M162 8v1512h545q455 -2 456 -422q0 -268 -252 -316q289 -47 289 -338q-10 -418 -502 -436h-536zM340 186h367q290 0 290 252q0 262 -254 262h-403v-514zM340 864h342q283 2 285 228q0 249 -283 249h-2h-342v-477z" />
<glyph unicode="C" horiz-adv-x="1183" d="M72 762q0 758 526 758q285 -8 508 -39v-164q-219 25 -500 26q-356 0 -356 -581q0 -580 356 -580q281 4 498 27v-160q-221 -31 -506 -41q-526 0 -526 754z" />
<glyph unicode="D" horiz-adv-x="1427" d="M162 0v1526h586q530 0 530 -762q0 -764 -530 -764h-586zM348 178h400q339 0 339 581q0 584 -338 584h-1h-400v-1165z" />
<glyph unicode="E" horiz-adv-x="1212" d="M125 272v975q2 270 272 271l738 -17v-162h-738q-92 0 -92 -92v-405h641v-164h-641v-406q0 -90 92 -90h733v-162l-733 -16q-272 0 -272 268z" />
<glyph unicode="F" horiz-adv-x="1288" d="M162 4v1243q0 270 270 271l737 -17v-162h-737q-92 0 -92 -92v-401h641v-178h-641v-664h-178z" />
<glyph unicode="G" horiz-adv-x="1306" d="M41 649v172q39 686 571 701l478 -17v-162h-484q-350 0 -387 -522v-172q0 -461 375 -493h360v489h-381v178h560v-829h-539q-553 0 -553 655z" />
<glyph unicode="H" horiz-adv-x="1361" d="M162 8v1510h178v-664h666v664h178v-1514h-178v672h-668l2 -668h-178z" />
<glyph unicode="I" horiz-adv-x="518" d="M162 4v1514h178v-1514h-178z" />
<glyph unicode="J" horiz-adv-x="825" d="M55 8v178h156q240 2 258 248v1086h178v-1086q-27 -410 -436 -424z" />
<glyph unicode="K" horiz-adv-x="1288" d="M162 4v1514h186v-699h47l631 699h234l-691 -760l2 -47l686 -707h-231l-631 641h-47v-641h-186z" />
<glyph unicode="L" horiz-adv-x="1128" d="M152 387v1133h186v-1133q0 -199 68 -199h673v-180h-673q-254 0 -254 379z" />
<glyph unicode="M" horiz-adv-x="1802" d="M162 8v1465q0 49 51 49h193q45 0 67 -52l416 -976l22 -2l406 978q20 49 63 50h199q45 0 45 -47v-1465h-178v1274l-23 2l-389 -958q-27 -66 -69 -66h-119q-47 0 -78 66l-401 956h-27v-1274h-178z" />
<glyph unicode="N" horiz-adv-x="1490" d="M162 8v1465q0 49 51 49h193q45 0 67 -52l660 -1282h22l-4 1330h178l-2 -1465q0 -45 -49 -45h-188q-47 0 -78 66l-645 1208h-27v-1274h-178z" />
<glyph unicode="O" horiz-adv-x="1357" d="M72 659v207q0 653 497 654h142q497 -1 497 -654v-207q0 -651 -497 -651h-142q-498 0 -497 651zM258 664q0 -492 309 -492h152q299 0 299 492v196q0 489 -299 490h-152q-309 0 -309 -490v-196z" />
<glyph unicode="P" horiz-adv-x="1353" d="M162 8v1512h653q422 0 422 -453q0 -455 -422 -455h-475v-604h-178zM340 780h428q289 0 289 289q0 283 -305 283h-412v-572z" />
<glyph unicode="Q" horiz-adv-x="1355" d="M72 659v207q0 653 497 654h142q498 0 497 -654v-207q0 -285 -94 -448l127 -100l-98 -121l-129 104q-113 -86 -303 -86h-142q-498 0 -497 651zM258 664q0 -492 309 -492h152q94 0 151 37l-303 248l95 121l305 -246q51 123 51 332v196q0 489 -299 490h-152 q-309 0 -309 -490v-196z" />
<glyph unicode="R" horiz-adv-x="1357" d="M162 4v1516h653q422 -2 422 -453q-14 -420 -354 -440l340 -623h-207l-332 608h-344v-608h-178zM340 780h438q279 0 279 289q0 283 -295 283h-422v-572z" />
<glyph unicode="S" horiz-adv-x="1181" d="M90 1049v157q0 311 502 312l430 -21v-162l-428 4q-322 0 -322 -133v-157q10 -109 228 -164l207 -60q369 -92 370 -356v-127q2 -340 -465 -340l-499 21v161l485 -4q287 0 293 162v127q0 113 -232 176l-235 76q-317 94 -334 328z" />
<glyph unicode="T" horiz-adv-x="1228" d="M55 1341v179h1121v-179h-451v-1337h-182v1337h-488z" />
<glyph unicode="U" horiz-adv-x="1388" d="M152 526v994h182v-994q0 -340 328 -340h40q340 0 340 340v994h181v-994q0 -516 -521 -516h-40q-510 0 -510 516z" />
<glyph unicode="V" horiz-adv-x="1329" d="M53 1518h193l405 -1303h21l418 1303h198l-475 -1448q-23 -66 -86 -66h-123q-68 0 -88 66z" />
<glyph unicode="W" horiz-adv-x="1984" d="M61 1518h193l283 -1303h20l293 1258q12 45 53 45h172q41 0 51 -45l283 -1258h21l294 1303h199l-352 -1448q-23 -66 -86 -66h-123q-68 0 -88 66l-273 1161h-20l-283 -1161q-23 -66 -86 -66h-123q-68 0 -88 66z" />
<glyph unicode="X" horiz-adv-x="1355" d="M49 8l508 756l-508 754h223l400 -611h20l389 611h226l-508 -754l508 -756h-226l-389 610h-20l-400 -610h-223z" />
<glyph unicode="Y" horiz-adv-x="1269" d="M53 1516h211l365 -822h22l383 822h197l-504 -1027v-485h-190v485z" />
<glyph unicode="Z" horiz-adv-x="1167" d="M90 1341v177h1055v-56q0 -59 -39 -119l-737 -1140l2 -15h774v-180h-1051v58q0 59 35 118l741 1141l2 16h-782z" />
<glyph unicode="[" horiz-adv-x="659" d="M106 -336v1938h447v-158h-252v-1622h252v-158h-447z" />
<glyph unicode="\" horiz-adv-x="923" d="M109 1538h192l514 -1530h-188z" />
<glyph unicode="]" horiz-adv-x="659" d="M106 -178h252v1622h-252v158h447v-1938h-447v158z" />
<glyph unicode="^" horiz-adv-x="1118" d="M109 762l325 704q14 33 45 33h160q35 0 51 -33l320 -704l-183 -2l-266 581h-16l-250 -581z" />
<glyph unicode="_" horiz-adv-x="1259" d="M106 -33h1047v-139h-1047v139z" />
<glyph unicode="`" horiz-adv-x="704" d="M113 1481h247l232 -256h-191z" />
<glyph unicode="a" horiz-adv-x="1048" d="M53 344q6 328 285 340h387v94q0 141 -156 166q-76 4 -151 4h-262v135q149 21 319 21q428 -18 428 -383v-717h-155l-11 127q-227 -125 -377 -127q-307 0 -307 340zM231 334q0 -186 129 -187q145 4 365 136v241h-385q-98 -18 -109 -190z" />
<glyph unicode="b" horiz-adv-x="1171" d="M152 4v1532h178v-481q118 31 233 39h82q410 0 410 -482v-123q0 -485 -410 -485h-82q-88 0 -231 121l-19 -121h-161zM330 283q143 -117 233 -121h82q233 0 234 327v123q0 328 -234 328h-82q-115 0 -233 -41v-616z" />
<glyph unicode="c" horiz-adv-x="958" d="M489 1102l394 -23v-153l-387 6q-246 0 -246 -385q0 -387 246 -387l387 6v-150l-394 -22q-417 0 -417 550q0 558 417 558z" />
<glyph unicode="d" horiz-adv-x="1120" d="M72 489v123q0 481 409 482h82q115 -8 234 -39v481h178v-1532h-162l-18 121q-143 -121 -232 -121h-82q-410 0 -409 485zM248 489q0 -327 232 -327h1h82q91 4 234 121v616q-119 41 -234 41h-82q-233 0 -233 -328v-123z" />
<glyph unicode="e" horiz-adv-x="1054" d="M76 547q0 551 356 551h178q338 0 348 -424q-10 -219 -161 -219h-553q29 -299 311 -299q109 0 340 20l20 -145q-147 -33 -366 -33q-473 0 -473 549zM242 612h454q86 0 86 82q-2 244 -196 246h-144q-174 -2 -200 -328z" />
<glyph unicode="f" horiz-adv-x="761" d="M63 954v150h148v133q0 324 375 324l180 -23v-141l-172 6q-203 0 -203 -172v-127h303v-150h-303v-946h-180v946h-148z" />
<glyph unicode="g" horiz-adv-x="1193" d="M74 -135q0 164 239 270q-70 49 -71 121v55q0 57 57 101q-160 80 -160 280v90q0 322 389 322h86q166 0 228 -21l295 -16v-111h-160q29 -72 29 -174v-90q0 -321 -390 -321h-2h-71q-45 0 -90 6q-43 -33 -45 -53l-2 -52q3 -59 118 -67h148q412 0 411 -320v-28 q0 -342 -411 -342h-174q-424 0 -424 301v49zM246 -135v-49q0 -135 258 -135h168q238 0 237 176v28q-2 162 -239 162q-231 8 -250 23q-174 -72 -174 -205zM311 692q0 -155 214 -155h3h86q217 0 217 155v90q0 156 -217 156h-86q-217 0 -217 -156v-90z" />
<glyph unicode="h" horiz-adv-x="1193" d="M152 8v1553h178v-514q162 53 360 57q354 -4 359 -322v-774h-179v637q0 287 -165 287q-203 0 -375 -66v-858h-178z" />
<glyph unicode="i" horiz-adv-x="475" d="M152 8v1096h178v-1096h-178zM152 1382v179h178v-179h-178z" />
<glyph unicode="j" horiz-adv-x="595" d="M53 -262q184 0 187 203v1183h178v-1183q0 -360 -365 -375v172zM240 1405v178h178v-178h-178z" />
<glyph unicode="k" horiz-adv-x="1079" d="M152 4v1552h182v-938h55l438 482h234l-504 -543v-33l502 -520h-230l-442 442h-53v-442h-182z" />
<glyph unicode="l" horiz-adv-x="602" d="M145 344v1217h179v-1221q0 -174 112 -174l162 6v-141l-162 -23q-291 0 -291 336z" />
<glyph unicode="m" horiz-adv-x="1738" d="M131 4v1100h162l18 -123q123 123 211 123h123q176 0 266 -172q123 152 254 172h103q328 0 327 -486v-614h-176v614q0 328 -151 328h-103q-90 -4 -211 -137q18 -84 19 -191v-614h-176v614q0 328 -152 328h-123q-90 -4 -213 -121v-821h-178z" />
<glyph unicode="n" horiz-adv-x="1130" d="M131 4v1100h162l18 -121q123 121 211 121h144q348 0 348 -486v-614h-176v614q0 328 -172 328h-144q-90 -4 -213 -121v-821h-178z" />
<glyph unicode="o" horiz-adv-x="1124" d="M72 489v123q0 485 403 486h123q410 -1 410 -486v-123q0 -481 -410 -481h-123q-403 0 -403 481zM242 489q0 -327 232 -327h1h123q233 0 233 327v123q0 328 -233 328h-123q-233 0 -233 -328v-123z" />
<glyph unicode="p" horiz-adv-x="1150" d="M131 -428v1532h162l18 -121q143 121 232 121h82q410 0 409 -486v-122q0 -481 -409 -482h-82q-115 8 -234 39v-481h-178zM309 209q119 -41 234 -41h82q233 0 233 328v122q0 328 -233 328h-82q-91 -4 -234 -121v-616z" />
<glyph unicode="q" horiz-adv-x="1126" d="M72 496v122q0 485 409 486h82q88 0 232 -121l18 121h162v-1532h-178v481q-119 -31 -234 -39h-82q-410 0 -409 482zM248 496q0 -328 233 -328h82q115 0 234 41v616q-144 117 -234 121h-82q-233 0 -233 -328v-122z" />
<glyph unicode="r" horiz-adv-x="794" d="M131 4v1100h162l18 -121q123 121 211 121q111 0 221 -23v-141q-111 6 -221 6q-90 -4 -213 -121v-821h-178z" />
<glyph unicode="s" horiz-adv-x="1017" d="M66 750l2 120q0 233 362 234l436 -14v-154l-436 2q-195 0 -194 -68v-116q10 -72 135 -92l260 -48q272 -47 272 -256v-106q0 -246 -338 -246l-483 14v156l475 -4q176 0 176 80v106q-2 74 -139 97l-285 51q-231 59 -243 244z" />
<glyph unicode="t" horiz-adv-x="768" d="M37 954v150h164v262h178v-262h307v-150h-307v-659q6 -125 100 -129l213 6v-141l-246 -23q-246 0 -245 307v639h-164z" />
<glyph unicode="u" horiz-adv-x="1136" d="M109 489v615h176v-615q0 -327 171 -327h1h143q90 4 213 121v821h178v-1100h-162l-18 121q-123 -121 -211 -121h-143q-348 0 -348 485z" />
<glyph unicode="v" horiz-adv-x="1030" d="M20 1104h183l274 -889h45l281 889h188l-321 -1014q-29 -82 -111 -82h-115q-82 0 -108 84z" />
<glyph unicode="w" horiz-adv-x="1630" d="M53 1104h176l207 -920h23l198 885q8 35 43 35h195q35 0 45 -35l234 -893h22l180 928h162l-195 -1059q-8 -41 -43 -41h-217q-35 0 -49 41l-217 856h-22l-199 -856q-10 -41 -45 -41h-225q-35 0 -43 41z" />
<glyph unicode="x" horiz-adv-x="1038" d="M43 8l385 549l-385 547h197l292 -422h21l270 422h197l-361 -547l361 -549h-197l-270 420h-21l-292 -420h-197z" />
<glyph unicode="y" horiz-adv-x="1144" d="M66 1104h194l318 -893q6 -23 16 -23h10l314 916h188l-377 -1104q-131 -391 -485 -395v131q219 20 295 264h-21q-20 0 -41 51z" />
<glyph unicode="z" horiz-adv-x="960" d="M72 8v47q0 47 30 95l514 780h-542v174h811v-47q0 -49 -35 -103l-512 -776h547v-170h-813z" />
<glyph unicode="{" horiz-adv-x="860" d="M106 631v57q53 8 96.5 44t71 79t39 99.5t11.5 129.5q0 154 10 267.5t49 191.5t122 116t228 38h21v-152q-76 0 -124 -18.5t-75 -59.5t-34 -105.5t-7 -154.5v-12q0 -119 -9 -199t-63.5 -169t-119.5 -121q66 -35 98.5 -69t54 -88t30.5 -134t9 -199v-16q0 -88 7 -152.5 t34 -103.5t75 -58.5t124 -19.5v-154q-121 0 -204 25.5t-132 77t-70.5 134t-21.5 195.5q0 125 -4.5 212t-26 149.5t-66.5 107.5t-123 62z" />
<glyph unicode="|" horiz-adv-x="405" d="M106 -338v2017q14 2 42 4.5t55 2.5t53.5 -2.5t42.5 -4.5v-2017q-16 -2 -42 -4t-54 -2q-27 0 -54.5 2t-42.5 4z" />
<glyph unicode="}" horiz-adv-x="860" d="M106 -178q76 0 124.5 19.5t75 58.5t34.5 103.5t8 152.5v16q0 119 8.5 199t30 134t55 88t97.5 69q-63 33 -97 67.5t-55.5 87.5t-30 134t-8.5 200v12q0 90 -8 154.5t-34.5 105.5t-75 59.5t-124.5 18.5v152h23q143 0 226 -38t123 -116t49.5 -191.5t9.5 -267.5q0 -74 12 -130 t38.5 -99t69.5 -79t97 -44v-57q-78 -16 -123 -61.5t-66.5 -108t-25.5 -149.5t-4 -212q0 -112 -21.5 -195t-71 -134.5t-132.5 -77t-204 -25.5v154z" />
<glyph unicode="~" horiz-adv-x="1259" d="M106 508q0 360 306 360q188 -4 282 -133q49 -80 154 -80q135 0 135 191h170q0 -369 -305 -369q-201 16 -283 131q-55 80 -153 82q-129 0 -129 -182h-177z" />
<glyph unicode="&#xa1;" horiz-adv-x="411" d="M106 -453l13 1084h174l12 -1084h-199zM106 913v191h199v-191h-199z" />
<glyph unicode="&#xa2;" horiz-adv-x="1099" d="M92 547q0 549 428 555v117h152v-125l231 -15v-153l-231 4v-768l231 4v-150l-231 -14v-108h-152v100q-428 6 -428 553zM270 547q0 -375 250 -387v772q-250 -12 -250 -385z" />
<glyph unicode="&#xa3;" horiz-adv-x="1118" d="M115 16v172q174 121 192 279v246h-186v135h186v211q0 453 398 452h278v-151h-266q-221 0 -221 -301v-211h372v-135h-372v-250q-6 -170 -148 -287h656v-160h-889z" />
<glyph unicode="&#xa4;" horiz-adv-x="880" d="M109 354l94 97q-14 20 -29 71q-12 35 -12 70q0 37 14 74q11 49 27 67l-94 94l94 97l98 -93q18 14 66 25q35 12 75 12q35 0 72 -10q47 -12 68 -29l94 95l96 -97l-92 -94q14 -23 29 -69q8 -33 8 -72q0 -37 -8 -72q-14 -49 -27 -67l90 -99l-96 -94l-94 94q-20 -16 -68 -28 q-35 -12 -74 -13q-37 0 -71 13q-49 12 -68 28l-98 -94zM293 592q0 -18 6 -39q10 -39 39 -64q25 -31 63 -40q20 -4 39 -5q18 0 41 5q39 10 66 40q27 25 39 62q4 23 4 41t-4 39q-12 39 -39 63q-29 31 -66 41q-23 4 -41 4q-20 0 -39 -4q-39 -10 -63 -41q-29 -25 -39 -59 q-6 -25 -6 -43z" />
<glyph unicode="&#xa5;" horiz-adv-x="1329" d="M109 1556h210l353 -827l352 827h197l-367 -819h313v-133h-372l-35 -74v-114h407v-135h-407v-277h-189v277h-397v135h397v114l-34 74h-363v133h305z" />
<glyph unicode="&#xa6;" horiz-adv-x="405" d="M106 -336v698h193v-698h-193zM106 979v698h193v-698h-193z" />
<glyph unicode="&#xa7;" horiz-adv-x="1050" d="M106 1194l3 121q0 233 362 233l436 -14v-154l-436 2q-195 0 -195 -67v-117q10 -72 138 -92l262 -41q268 -51 268 -262v-209l-170 18v191q-2 74 -139 96l-285 51q-231 59 -244 244zM109 758v209l170 -19v-190q0 -74 139 -96l284 -52q231 -59 242 -243v-121 q0 -233 -362 -234l-437 15v153l435 -2q197 0 196 68v116q-10 72 -137 93l-262 41q-268 51 -268 262z" />
<glyph unicode="&#xa8;" horiz-adv-x="854" d="M106 1245v199h203v-199h-203zM545 1245v199h203v-199h-203z" />
<glyph unicode="&#xa9;" horiz-adv-x="1806" d="M119 774q0 164 58.5 309.5t159.5 249t245.5 165t318.5 61.5q176 0 320.5 -60.5t246 -165t160 -248t58.5 -311.5t-58.5 -312.5t-160 -247.5t-246 -164.5t-320.5 -61.5q-174 0 -318.5 61.5t-245.5 164.5t-159.5 247.5t-58.5 312.5zM246 774q0 -143 45 -265t130 -215 t205.5 -144.5t274.5 -51.5q156 0 276.5 51.5t205.5 144.5t129 215t44 265q0 141 -44 263t-129 215.5t-205.5 144.5t-276.5 51q-154 0 -274.5 -51t-205.5 -144.5t-130 -215.5t-45 -263zM573 770q0 440 347 440q184 0 280 -131l-80 -88q-96 94 -194 94q-229 0 -230 -315 q0 -317 230 -317q98 0 190 88l82 -90q-100 -119 -278 -119q-346 0 -347 438z" />
<glyph unicode="&#xaa;" horiz-adv-x="804" d="M117 834q4 215 198 223h234v65q0 86 -94 101q-49 4 -86 4h-185v108q109 15 209 15q295 -12 295 -265v-487h-123l-6 78q-139 -76 -227 -78q-215 0 -215 236zM256 827q0 -115 76 -114q80 4 217 86v131h-230q-57 -10 -63 -103z" />
<glyph unicode="&#xab;" horiz-adv-x="1318" d="M109 569l348 467h209l-347 -465l347 -471h-205zM651 569l348 467h209l-346 -465l346 -471h-204z" />
<glyph unicode="&#xac;" horiz-adv-x="1093" d="M106 629v182h881v-584h-182v402h-699z" />
<glyph unicode="&#xad;" horiz-adv-x="661" d="M39 489v179h541v-179h-541z" />
<glyph unicode="&#xae;" horiz-adv-x="1792" d="M113 774q0 164 58 309.5t159.5 249t246 165t318.5 61.5q176 0 320.5 -60.5t246 -165t159.5 -248t58 -311.5t-58 -312.5t-159.5 -247.5t-246 -164.5t-320.5 -61.5q-174 0 -318.5 61.5t-246 164.5t-159.5 247.5t-58 312.5zM240 774q0 -143 45 -265t130 -215t205.5 -144.5 t274.5 -51.5q156 0 276.5 51.5t205.5 144.5t129 215t44 265q0 141 -44 263t-129 215.5t-205.5 144.5t-276.5 51q-154 0 -274.5 -51t-205.5 -144.5t-130 -215.5t-45 -263zM625 346v848h282q311 -2 312 -252q0 -207 -183 -244l183 -352h-144l-155 342h-177v-342h-118zM743 809 h160q190 0 191 133q0 133 -199 133h-152v-266z" />
<glyph unicode="&#xaf;" horiz-adv-x="776" d="M106 1278v143h564v-143h-564z" />
<glyph unicode="&#xb0;" horiz-adv-x="825" d="M106 1202q0 66 25 121t66 95t97 64.5t118 24.5q63 0 119.5 -24.5t97.5 -64.5t65.5 -95t24.5 -121q0 -61 -24.5 -117.5t-65.5 -96.5t-97.5 -64.5t-119.5 -24.5q-61 0 -117.5 24.5t-97.5 64.5t-66 96.5t-25 117.5zM244 1202q0 -78 48 -127t120 -49q74 0 123 49t49 127 t-49.5 128t-122.5 50q-72 0 -120 -50t-48 -128z" />
<glyph unicode="&#xb1;" horiz-adv-x="1107" d="M106 10v178h895v-178h-895zM111 668v176h356v391h176v-391h354v-176h-354v-389h-176v389h-356z" />
<glyph unicode="&#xb2;" horiz-adv-x="806" d="M106 637v92q10 131 99 221l252 219q80 66 84 111v29q-4 59 -66 90q-39 14 -84 18q-121 0 -260 -6v133q137 14 260 17q68 0 137 -29q158 -66 164 -223v-31q-8 -96 -141 -211l-238 -211q-47 -51 -51 -80h438v-139h-594z" />
<glyph unicode="&#xb3;" horiz-adv-x="829" d="M106 651v135l259 -10q113 0 155 21q61 37 35 157q-25 70 -115 72h-221v137h223q74 0 95 45q27 137 -43 185q-27 20 -127 20l-236 -10v135l234 21q207 2 260 -60q51 -55 61 -164q14 -217 -111 -237q147 -25 132 -256q-8 -100 -60 -150q-53 -61 -285 -61z" />
<glyph unicode="&#xb4;" horiz-adv-x="702" d="M113 1225l231 256h246l-287 -256h-190z" />
<glyph unicode="&#xb5;" horiz-adv-x="1157" d="M106 -475v1593h195v-567q0 -193 65.5 -287t206.5 -94q55 0 106.5 18.5t91.5 57.5t62.5 98t22.5 141v633h195v-1085h-179v153q-66 -90 -141.5 -135t-191.5 -45q-141 0 -240 111v-592h-193z" />
<glyph unicode="&#xb6;" horiz-adv-x="1183" d="M106 1092q0 125 38 213t119 142t204 81q111 20 264 22h346v-1542h-143v1370h-180v-1370h-142v674h-34q-100 0 -185.5 23.5t-149 72.5t-100.5 128t-37 186z" />
<glyph unicode="&#xb7;" horiz-adv-x="430" d="M106 461v217h218v-217h-218z" />
<glyph unicode="&#xb8;" horiz-adv-x="671" d="M106 -465q2 25 7.5 57.5t19.5 51.5q59 -18 129 -19q70 0 113 22.5t43 71.5q0 47 -42 65.5t-106 18.5q-31 0 -62.5 -4t-55.5 -12l-7 8l101 273h121l-70 -181q33 8 61 9q98 0 152.5 -49.5t54.5 -127.5q0 -102 -83 -153t-220 -51q-31 0 -75 3t-81 17z" />
<glyph unicode="&#xb9;" horiz-adv-x="557" d="M106 1384v134l230 41h115v-928h-142v790z" />
<glyph unicode="&#xba;" horiz-adv-x="837" d="M106 1022v178q12 391 297 391h43q273 0 285 -391v-178q-12 -389 -285 -389h-43q-285 0 -297 389zM258 1026q12 -256 145 -256h43q119 0 132 256v168q-12 256 -132 256h-43q-133 0 -145 -256v-168z" />
<glyph unicode="&#xbb;" horiz-adv-x="1318" d="M111 100l346 471l-346 465h208l349 -467l-351 -469h-206zM653 100l346 471l-346 465h209l348 -467l-350 -469h-207z" />
<glyph unicode="&#xbc;" horiz-adv-x="1665" d="M86 1343v134l229 41h115v-928h-141v790zM260 2l1024 1516h152l-1024 -1516h-152zM932 203v84q0 37 16 63l369 545q27 35 67 35h97v-592h98v-135h-98v-209h-142v209h-407zM1100 338h239v369z" />
<glyph unicode="&#xbd;" horiz-adv-x="1847" d="M86 1343v134l229 41h115v-928h-141v790zM260 2l1024 1516h152l-1024 -1516h-152zM1167 8v92q10 131 99 222l252 219q80 66 84 110v29q-4 59 -66 90q-39 14 -84 18q-121 0 -260 -6v133q137 14 260 17q68 0 137 -29q158 -66 164 -223v-31q-8 -96 -141 -211l-238 -211 q-47 -51 -51 -80h438v-139h-594z" />
<glyph unicode="&#xbe;" horiz-adv-x="1769" d="M86 610v135l258 -10q113 0 156 21q61 37 35 157q-25 70 -115 72h-221v137h223q74 0 94 45q27 137 -43 185q-27 20 -127 20l-235 -10v135l233 21q207 2 260 -60q51 -55 62 -164q14 -217 -111 -237q147 -25 131 -256q-8 -100 -59 -150q-53 -61 -285 -61zM365 2l1024 1516 h151l-1024 -1516h-151zM1036 203v84q0 37 17 63l368 545q27 35 68 35h96v-592h98v-135h-98v-209h-141v209h-408zM1204 338h240v369z" />
<glyph unicode="&#xbf;" horiz-adv-x="1083" d="M106 8q0 193 226 314q172 78 172 253v127h184v-133q0 -229 -233 -370q-162 -84 -162 -191v-69q0 -152 244 -152q221 0 440 20v-174q-225 -37 -451 -39q-420 4 -420 345v69zM506 930v178h178v-178h-178z" />
<glyph unicode="&#xc0;" d="M23 4l483 1423q31 90 98 91h103q68 0 98 -91l483 -1423h-178l-131 363h-643l-135 -363h-178zM265 1870h247l232 -256h-191zM393 545h529l-244 721h-37z" />
<glyph unicode="&#xc1;" d="M23 4l483 1423q31 90 98 91h103q68 0 98 -91l483 -1423h-178l-131 363h-643l-135 -363h-178zM393 545h529l-244 721h-37zM553 1614l231 256h246l-287 -256h-190z" />
<glyph unicode="&#xc2;" d="M23 4l483 1423q31 90 98 91h103q68 0 98 -91l483 -1423h-178l-131 363h-643l-135 -363h-178zM291 1614l219 256l243 -2l218 -254h-197l-143 176l-144 -176h-196zM393 545h529l-244 721h-37z" />
<glyph unicode="&#xc3;" d="M23 4l483 1423q31 90 98 91h103q68 0 98 -91l483 -1423h-178l-131 363h-643l-135 -363h-178zM244 1726q29 31 83 66t123 35q41 0 86 -17.5t88 -37t85 -37t90 -17.5q43 0 75.5 17.5t65.5 52.5l63 -113q-31 -31 -84 -63.5t-118 -32.5q-45 0 -90.5 16.5t-88.5 37t-85 35.5 t-85 15q-49 0 -81.5 -18t-63.5 -49zM393 545h529l-244 721h-37z" />
<glyph unicode="&#xc4;" d="M23 4l483 1423q31 90 98 91h103q68 0 98 -91l483 -1423h-178l-131 363h-643l-135 -363h-178zM325 1634v199h203v-199h-203zM393 545h529l-244 721h-37zM764 1634v199h203v-199h-203z" />
<glyph unicode="&#xc5;" d="M23 4l483 1423q8 23 16 39q-14 10 -26 23q-63 61 -64 160q0 100 62.5 161.5t160.5 61.5q100 0 163 -61.5t63 -161.5q0 -98 -62 -160q-15 -15 -31 -25q10 -16 17 -37l483 -1423h-178l-131 363h-643l-135 -363h-178zM393 545h529l-244 721h-37zM543 1649q0 -59 28.5 -94 t83.5 -35q57 0 87 34.5t30 94.5q0 61 -29.5 95t-87.5 34q-55 0 -83.5 -34t-28.5 -95z" />
<glyph unicode="&#xc6;" horiz-adv-x="1918" d="M-39 8l899 1553h987v-189h-712v-502h569v-170h-569v-524h708v-168h-903v404h-539l-241 -404h-199zM475 586h465v751z" />
<glyph unicode="&#xc7;" horiz-adv-x="1191" d="M72 762q0 758 526 758q285 -8 508 -39v-164q-219 25 -500 26q-356 0 -356 -581q0 -580 356 -580q281 4 498 27v-160q-199 -27 -449 -39l-41 -106q33 8 62 8q98 0 152.5 -49t54.5 -127q0 -102 -83 -153.5t-220 -51.5q-31 0 -75 3t-81 17q2 25 7 58t20 51q59 -18 129 -18 t112.5 22.5t42.5 71.5q0 47 -42 65.5t-105 18.5q-31 0 -62.5 -4t-56.5 -13l-6 9l74 198q-465 43 -465 752z" />
<glyph unicode="&#xc8;" horiz-adv-x="1212" d="M125 272v975q2 270 272 271l738 -17v-162h-738q-92 0 -92 -92v-405h641v-164h-641v-406q0 -90 92 -90h733v-162l-733 -16q-272 0 -272 268zM410 1829h247l232 -256h-191z" />
<glyph unicode="&#xc9;" horiz-adv-x="1212" d="M125 272v975q2 270 272 271l738 -17v-162h-738q-92 0 -92 -92v-405h641v-164h-641v-406q0 -90 92 -90h733v-162l-733 -16q-272 0 -272 268zM412 1573l231 256h246l-287 -256h-190z" />
<glyph unicode="&#xca;" horiz-adv-x="1212" d="M125 272v975q2 270 272 271l738 -17v-162h-738q-92 0 -92 -92v-405h641v-164h-641v-406q0 -90 92 -90h733v-162l-733 -16q-272 0 -272 268zM312 1594l219 256l243 -2l218 -254h-197l-143 176l-144 -176h-196z" />
<glyph unicode="&#xcb;" horiz-adv-x="1212" d="M125 272v975q2 270 272 271l738 -17v-162h-738q-92 0 -92 -92v-405h641v-164h-641v-406q0 -90 92 -90h733v-162l-733 -16q-272 0 -272 268zM311 1634v199h203v-199h-203zM750 1634v199h203v-199h-203z" />
<glyph unicode="&#xcc;" horiz-adv-x="546" d="M-32 1891h247l232 -256h-191zM195 4v1514h178v-1514h-178z" />
<glyph unicode="&#xcd;" horiz-adv-x="509" d="M97 1635l231 256h246l-287 -256h-190zM182 4v1514h178v-1514h-178z" />
<glyph unicode="&#xce;" horiz-adv-x="634" d="M-8 1620l219 256l243 -2l218 -254h-197l-143 176l-144 -176h-196zM234 4v1514h178v-1514h-178z" />
<glyph unicode="&#xcf;" horiz-adv-x="595" d="M-9 1655v199h203v-199h-203zM207 4v1514h178v-1514h-178zM430 1655v199h203v-199h-203z" />
<glyph unicode="&#xd0;" horiz-adv-x="1466" d="M37 688v162h164v717h383q733 0 733 -783q0 -784 -721 -784h-395v688h-164zM387 178h188q551 0 551 604q0 602 -559 602h-180v-534h281v-162h-281v-510z" />
<glyph unicode="&#xd1;" horiz-adv-x="1495" d="M182 8v1465q0 49 51 49h193q45 0 67 -52l660 -1282h22l-4 1330h178l-2 -1465q0 -45 -49 -45h-188q-47 0 -78 66l-645 1208h-27v-1274h-178zM351 1767q29 31 83 66t123 35q41 0 86 -17.5t88 -37t85 -37t90 -17.5q43 0 75.5 17.5t65.5 52.5l63 -113q-31 -31 -84 -63.5 t-118 -32.5q-45 0 -90.5 16.5t-88.5 37t-85 35.5t-85 15q-49 0 -81.5 -18t-63.5 -49z" />
<glyph unicode="&#xd2;" horiz-adv-x="1357" d="M72 659v207q0 653 497 654h142q497 -1 497 -654v-207q0 -651 -497 -651h-142q-498 0 -497 651zM258 664q0 -492 309 -492h152q299 0 299 492v196q0 489 -299 490h-152q-309 0 -309 -490v-196zM299 1891h247l232 -256h-191z" />
<glyph unicode="&#xd3;" horiz-adv-x="1357" d="M72 659v207q0 653 497 654h142q497 -1 497 -654v-207q0 -651 -497 -651h-142q-498 0 -497 651zM258 664q0 -492 309 -492h152q299 0 299 492v196q0 489 -299 490h-152q-309 0 -309 -490v-196zM465 1635l231 256h246l-287 -256h-190z" />
<glyph unicode="&#xd4;" horiz-adv-x="1357" d="M72 659v207q0 653 497 654h142q497 -1 497 -654v-207q0 -651 -497 -651h-142q-498 0 -497 651zM258 664q0 -492 309 -492h152q299 0 299 492v196q0 489 -299 490h-152q-309 0 -309 -490v-196zM303 1635l219 256l243 -2l218 -254h-197l-143 176l-144 -176h-196z" />
<glyph unicode="&#xd5;" horiz-adv-x="1357" d="M72 659v207q0 653 497 654h142q497 -1 497 -654v-207q0 -651 -497 -651h-142q-498 0 -497 651zM258 664q0 -492 309 -492h152q299 0 299 492v196q0 489 -299 490h-152q-309 0 -309 -490v-196zM267 1787q29 31 83 66t123 35q41 0 86 -17.5t88 -37t85 -37t90 -17.5 q43 0 75.5 17.5t65.5 52.5l63 -113q-31 -31 -84 -63.5t-118 -32.5q-45 0 -90.5 16.5t-88.5 37t-85 35.5t-85 15q-49 0 -81.5 -18t-63.5 -49z" />
<glyph unicode="&#xd6;" horiz-adv-x="1357" d="M72 659v207q0 653 497 654h142q497 -1 497 -654v-207q0 -651 -497 -651h-142q-498 0 -497 651zM258 664q0 -492 309 -492h152q299 0 299 492v196q0 489 -299 490h-152q-309 0 -309 -490v-196zM323 1655v199h203v-199h-203zM762 1655v199h203v-199h-203z" />
<glyph unicode="&#xd7;" horiz-adv-x="1044" d="M109 403l303 304l-303 305l110 108l303 -305l305 305l109 -110l-305 -303l305 -304l-111 -110l-303 303l-303 -303z" />
<glyph unicode="&#xd8;" horiz-adv-x="1376" d="M90 659v207q0 653 498 654h141q172 0 285 -78l47 78h166l-111 -183q111 -162 111 -471v-207q0 -651 -498 -651h-141q-147 0 -252 58l-37 -62h-164l92 152q-137 162 -137 503zM276 664q0 -213 58 -334l584 954q-70 66 -181 66h-151q-309 0 -310 -490v-196zM428 215 q66 -43 158 -43h151q299 0 299 492v196q0 174 -37 287z" />
<glyph unicode="&#xd9;" horiz-adv-x="1388" d="M152 526v994h182v-994q0 -340 328 -340h40q340 0 340 340v994h181v-994q0 -516 -521 -516h-40q-510 0 -510 516zM377 1891h247l232 -256h-191z" />
<glyph unicode="&#xda;" horiz-adv-x="1388" d="M152 526v994h182v-994q0 -340 328 -340h40q340 0 340 340v994h181v-994q0 -516 -521 -516h-40q-510 0 -510 516zM523 1635l231 256h246l-287 -256h-190z" />
<glyph unicode="&#xdb;" horiz-adv-x="1388" d="M152 526v994h182v-994q0 -340 328 -340h40q340 0 340 340v994h181v-994q0 -516 -521 -516h-40q-510 0 -510 516zM340 1635l219 256l243 -2l218 -254h-197l-143 176l-144 -176h-196z" />
<glyph unicode="&#xdc;" horiz-adv-x="1388" d="M152 526v994h182v-994q0 -340 328 -340h40q340 0 340 340v994h181v-994q0 -516 -521 -516h-40q-510 0 -510 516zM380 1675v199h203v-199h-203zM819 1675v199h203v-199h-203z" />
<glyph unicode="&#xdd;" horiz-adv-x="1146" d="M53 1516h211l365 -822h22l383 822h197l-504 -1027v-485h-190v485zM439 1635l231 256h246l-287 -256h-190z" />
<glyph unicode="&#xde;" horiz-adv-x="1202" d="M174 0v1505h178v-241h156q573 0 573 -494q0 -489 -573 -489h-156v-281h-178zM352 432h156q387 0 387 340t-387 340h-156v-680z" />
<glyph unicode="&#xdf;" horiz-adv-x="1193" d="M152 10v1112q0 406 401 406h41q369 0 369 -340q0 -96 -96.5 -226.5t-96.5 -193.5q0 -80 171 -219t171 -258q0 -313 -387 -314h-125v164h125q188 0 188 156q0 98 -169 229t-169 228q0 72 95.5 206t95.5 218q0 193 -172 192h-41q-209 0 -209 -252v-1108h-192z" />
<glyph unicode="&#xe0;" horiz-adv-x="1060" d="M88 344q6 328 285 340h387v94q0 141 -156 166q-76 4 -151 4h-262v135q149 21 319 21q428 -18 428 -383v-717h-155l-11 127q-227 -125 -377 -127q-307 0 -307 340zM156 1481h247l232 -256h-191zM266 334q0 -186 129 -187q145 4 365 136v241h-385q-98 -18 -109 -190z" />
<glyph unicode="&#xe1;" horiz-adv-x="1030" d="M55 344q6 328 285 340h387v94q0 141 -156 166q-76 4 -151 4h-262v135q149 21 319 21q428 -18 428 -383v-717h-155l-11 127q-227 -125 -377 -127q-307 0 -307 340zM233 334q0 -186 129 -187q145 4 365 136v241h-385q-98 -18 -109 -190zM330 1225l231 256h246l-287 -256 h-190z" />
<glyph unicode="&#xe2;" horiz-adv-x="1028" d="M53 344q6 328 285 340h387v94q0 141 -156 166q-76 4 -151 4h-262v135q149 21 319 21q428 -18 428 -383v-717h-155l-11 127q-227 -125 -377 -127q-307 0 -307 340zM125 1225l219 256l243 -2l218 -254h-197l-143 176l-144 -176h-196zM231 334q0 -186 129 -187 q145 4 365 136v241h-385q-98 -18 -109 -190z" />
<glyph unicode="&#xe3;" horiz-adv-x="1060" d="M88 344q6 328 285 340h387v94q0 141 -156 166q-76 4 -151 4h-262v135q149 21 319 21q428 -18 428 -383v-717h-155l-11 127q-227 -125 -377 -127q-307 0 -307 340zM123 1337q29 31 83 66t123 35q41 0 86 -17.5t88 -37t85 -37t90 -17.5q43 0 75.5 17.5t65.5 52.5l63 -113 q-31 -31 -84 -63.5t-118 -32.5q-45 0 -90.5 16.5t-88.5 37t-85 35.5t-85 15q-49 0 -81.5 -18t-63.5 -49zM266 334q0 -186 129 -187q145 4 365 136v241h-385q-98 -18 -109 -190z" />
<glyph unicode="&#xe4;" horiz-adv-x="1060" d="M88 344q6 328 285 340h387v94q0 141 -156 166q-76 4 -151 4h-262v135q149 21 319 21q428 -18 428 -383v-717h-155l-11 127q-227 -125 -377 -127q-307 0 -307 340zM180 1245v199h203v-199h-203zM266 334q0 -186 129 -187q145 4 365 136v241h-385q-98 -18 -109 -190z M619 1245v199h203v-199h-203z" />
<glyph unicode="&#xe5;" horiz-adv-x="1028" d="M53 344q6 328 285 340h387v94q0 141 -156 166q-76 4 -151 4h-262v135q149 21 319 21q428 -18 428 -383v-717h-155l-11 127q-227 -125 -377 -127q-307 0 -307 340zM231 334q0 -186 129 -187q145 4 365 136v241h-385q-98 -18 -109 -190zM241 1430q0 100 62.5 161.5 t161.5 61.5q100 0 162.5 -61.5t62.5 -161.5q0 -98 -62.5 -160t-162.5 -62q-98 0 -161 62t-63 160zM352 1430q0 -59 29 -94.5t84 -35.5q57 0 86.5 35t29.5 95q0 61 -29.5 95t-86.5 34q-55 0 -84 -34t-29 -95z" />
<glyph unicode="&#xe6;" horiz-adv-x="1693" d="M53 344q6 328 285 340h367v94q0 141 -156 166q-76 4 -131 4h-262v135q150 20 299 21q248 -10 352 -139q90 133 264 133h178q338 0 348 -424q-10 -219 -161 -219h-539l6 -101q61 -199 291 -198q109 0 340 20l20 -145q-147 -33 -366 -33q-240 0 -357 139 q-145 -143 -471 -133q-307 0 -307 340zM231 334q0 -186 129 -187q125 4 262.5 34t82.5 343h-365q-98 -18 -109 -190zM887 662l2 -50h446q86 0 86 82q-2 244 -196 246h-144q-159 -2 -194 -278z" />
<glyph unicode="&#xe7;" horiz-adv-x="960" d="M72 547q0 555 417 555l394 -23v-153l-387 6q-246 0 -246 -385q0 -387 246 -387l387 6v-150l-338 -18l-43 -111q33 8 61 9q98 0 152.5 -49.5t54.5 -127.5q0 -102 -83 -153t-220 -51q-31 0 -75 3t-81 17q2 25 7.5 57.5t19.5 51.5q59 -18 129 -19q70 0 113 22.5t43 71.5 q0 47 -42 65.5t-106 18.5q-31 0 -62.5 -4t-56.5 -12l-6 8l74 203q-352 41 -352 549z" />
<glyph unicode="&#xe8;" horiz-adv-x="1075" d="M96 547q0 551 356 551h178q338 0 348 -424q-10 -219 -161 -219h-553q29 -299 311 -299q109 0 340 20l20 -145q-147 -33 -366 -33q-473 0 -473 549zM154 1481h247l232 -256h-191zM262 612h454q86 0 86 82q-2 244 -196 246h-144q-174 -2 -200 -328z" />
<glyph unicode="&#xe9;" horiz-adv-x="1054" d="M76 547q0 551 356 551h178q338 0 348 -424q-10 -219 -161 -219h-553q29 -299 311 -299q109 0 340 20l20 -145q-147 -33 -366 -33q-473 0 -473 549zM242 612h454q86 0 86 82q-2 244 -196 246h-144q-174 -2 -200 -328zM320 1225l231 256h246l-287 -256h-190z" />
<glyph unicode="&#xea;" horiz-adv-x="1071" d="M92 547q0 551 356 551h178q338 0 348 -424q-10 -219 -161 -219h-553q29 -299 311 -299q109 0 340 20l20 -145q-147 -33 -366 -33q-473 0 -473 549zM195 1225l219 256l243 -2l218 -254h-197l-143 176l-144 -176h-196zM258 612h454q86 0 86 82q-2 244 -196 246h-144 q-174 -2 -200 -328z" />
<glyph unicode="&#xeb;" horiz-adv-x="1071" d="M92 547q0 551 356 551h178q338 0 348 -424q-10 -219 -161 -219h-553q29 -299 311 -299q109 0 340 20l20 -145q-147 -33 -366 -33q-473 0 -473 549zM215 1245v199h203v-199h-203zM258 612h454q86 0 86 82q-2 244 -196 246h-144q-174 -2 -200 -328zM654 1245v199h203v-199 h-203z" />
<glyph unicode="&#xec;" horiz-adv-x="397" d="M-41 1542h248l231 -256h-190zM186 0v1106h193v-1106h-193z" />
<glyph unicode="&#xed;" horiz-adv-x="395" d="M-41 1286l231 256h246l-286 -256h-191zM23 8v1090h174v-1090h-174z" />
<glyph unicode="&#xee;" horiz-adv-x="557" d="M-61 1286l219 256l243 -2l217 -254h-196l-143 176l-144 -176h-196zM193 8v1090h174v-1090h-174z" />
<glyph unicode="&#xef;" horiz-adv-x="518" d="M-61 1307v198h202v-198h-202zM170 8v1090h176v-1090h-176zM377 1307v198h203v-198h-203z" />
<glyph unicode="&#xf0;" horiz-adv-x="1255" d="M72 449v122q0 440 409 441h82q176 -8 357 -39q0 170 -60 276l-151 -141l-95 98l158 148q-106 80 -289 80v163q270 0 422 -120l113 106l92 -98l-115 -107q102 -152 103 -405v-156q0 -813 -617 -813q-410 0 -409 445zM248 449q0 -287 233 -287q439 0 439 655 q-180 41 -357 41h-82q-233 0 -233 -287v-122z" />
<glyph unicode="&#xf1;" horiz-adv-x="1165" d="M139 4v1100h162l18 -121q123 121 211 121h144q348 0 348 -486v-614h-176v614q0 328 -172 328h-144q-90 -4 -213 -121v-821h-178zM142 1357q29 31 83 66t123 35q41 0 86 -17.5t88 -37t85 -37t90 -17.5q43 0 75.5 17.5t65.5 52.5l63 -113q-31 -31 -84 -63.5t-118 -32.5 q-45 0 -90.5 16.5t-88.5 37t-85 35.5t-85 15q-49 0 -81.5 -18t-63.5 -49z" />
<glyph unicode="&#xf2;" horiz-adv-x="1144" d="M92 489v123q0 485 403 486h123q410 -1 410 -486v-123q0 -481 -410 -481h-123q-403 0 -403 481zM191 1481h247l232 -256h-191zM262 489q0 -328 233 -327h123q233 0 233 327v123q0 328 -233 328h-123q-233 0 -233 -328v-123z" />
<glyph unicode="&#xf3;" horiz-adv-x="1124" d="M72 489v123q0 485 403 486h123q410 -1 410 -486v-123q0 -481 -410 -481h-123q-403 0 -403 481zM242 489q0 -328 233 -327h123q233 0 233 327v123q0 328 -233 328h-123q-233 0 -233 -328v-123zM336 1225l231 256h246l-287 -256h-190z" />
<glyph unicode="&#xf4;" horiz-adv-x="1140" d="M88 489v123q0 485 403 486h123q410 -1 410 -486v-123q0 -481 -410 -481h-123q-403 0 -403 481zM211 1225l219 256l243 -2l218 -254h-197l-143 176l-144 -176h-196zM258 489q0 -328 233 -327h123q233 0 233 327v123q0 328 -233 328h-123q-233 0 -233 -328v-123z" />
<glyph unicode="&#xf5;" horiz-adv-x="1140" d="M88 489v123q0 485 403 486h123q410 -1 410 -486v-123q0 -481 -410 -481h-123q-403 0 -403 481zM168 1349q29 31 83 66t123 35q41 0 86 -17.5t88 -37t85 -37t90 -17.5q43 0 75.5 17.5t65.5 52.5l63 -113q-31 -31 -84 -63.5t-118 -32.5q-45 0 -90.5 16.5t-88.5 37t-85 35.5 t-85 15q-49 0 -81.5 -18t-63.5 -49zM258 489q0 -328 233 -327h123q233 0 233 327v123q0 328 -233 328h-123q-233 0 -233 -328v-123z" />
<glyph unicode="&#xf6;" horiz-adv-x="1140" d="M88 489v123q0 485 403 486h123q410 -1 410 -486v-123q0 -481 -410 -481h-123q-403 0 -403 481zM231 1245v199h203v-199h-203zM258 489q0 -328 233 -327h123q233 0 233 327v123q0 328 -233 328h-123q-233 0 -233 -328v-123zM670 1245v199h203v-199h-203z" />
<glyph unicode="&#xf7;" horiz-adv-x="1107" d="M106 657v179h895v-179h-895zM449 223v217h217v-217h-217zM449 1040v217h217v-217h-217z" />
<glyph unicode="&#xf8;" horiz-adv-x="1155" d="M102 489v123q0 485 404 486h123q115 0 196 -47l23 36h158l-80 -124q94 -121 112 -351v-123q0 -481 -409 -481h-123q-98 0 -172 29l-21 -33h-157l65 105q-119 119 -119 380zM272 489q0 -147 47 -229l418 655q-45 25 -108 25h-123q-233 0 -234 -328v-123zM422 174 q37 -12 84 -12h123q233 0 233 327v123q0 123 -33 199z" />
<glyph unicode="&#xf9;" horiz-adv-x="1140" d="M113 489v615h176v-615q0 -328 172 -327h143q90 4 213 121v821h178v-1100h-162l-18 121q-123 -121 -211 -121h-143q-348 0 -348 485zM195 1481h247l232 -256h-191z" />
<glyph unicode="&#xfa;" horiz-adv-x="1136" d="M109 489v615h176v-615q0 -328 172 -327h143q90 4 213 121v821h178v-1100h-162l-18 121q-123 -121 -211 -121h-143q-348 0 -348 485zM377 1225l231 256h246l-287 -256h-190z" />
<glyph unicode="&#xfb;" horiz-adv-x="1114" d="M117 489v615h176v-615q0 -328 172 -327h143q90 4 213 121v821h178v-1100h-162l-18 121q-123 -121 -211 -121h-143q-348 0 -348 485zM224 1225l219 256l243 -2l218 -254h-197l-143 176l-144 -176h-196z" />
<glyph unicode="&#xfc;" horiz-adv-x="1144" d="M117 489v615h176v-615q0 -328 172 -327h143q90 4 213 121v821h178v-1100h-162l-18 121q-123 -121 -211 -121h-143q-348 0 -348 485zM243 1245v199h203v-199h-203zM682 1245v199h203v-199h-203z" />
<glyph unicode="&#xfd;" horiz-adv-x="1081" d="M66 1104h194l318 -893q6 -23 16 -23h10l314 916h188l-377 -1104q-131 -391 -485 -395v131q219 20 295 264h-21q-20 0 -41 51zM336 1225l231 256h246l-287 -256h-190z" />
<glyph unicode="&#xfe;" horiz-adv-x="1249" d="M172 -485v2046h176v-443h213q561 0 561 -540q0 -580 -561 -580h-213v-483h-176zM348 170h213q373 0 373 408q0 369 -373 368h-213v-776z" />
<glyph unicode="&#xff;" horiz-adv-x="1087" d="M72 1104h194l318 -893q6 -23 16 -23h10l314 916h188l-377 -1104q-131 -391 -485 -395v131q219 20 295 264h-21q-20 0 -41 51zM241 1245v199h203v-199h-203zM680 1245v199h203v-199h-203z" />
<glyph unicode="&#x2c6;" horiz-adv-x="903" d="M113 1225l219 256l243 -2l218 -254h-197l-143 176l-144 -176h-196z" />
<glyph unicode="&#x2dc;" horiz-adv-x="976" d="M109 1767q29 31 83 66t123 35q41 0 86 -17.5t88 -37t85 -37t90 -17.5q43 0 75.5 17.5t65.5 52.5l63 -113q-31 -31 -84 -63.5t-118 -32.5q-45 0 -90.5 16.5t-88.5 37t-85 35.5t-85 15q-49 0 -81.5 -18t-63.5 -49z" />
<glyph unicode="&#x2000;" horiz-adv-x="945" />
<glyph unicode="&#x2001;" horiz-adv-x="1891" />
<glyph unicode="&#x2002;" horiz-adv-x="945" />
<glyph unicode="&#x2003;" horiz-adv-x="1891" />
<glyph unicode="&#x2004;" horiz-adv-x="630" />
<glyph unicode="&#x2005;" horiz-adv-x="472" />
<glyph unicode="&#x2006;" horiz-adv-x="315" />
<glyph unicode="&#x2007;" horiz-adv-x="315" />
<glyph unicode="&#x2008;" horiz-adv-x="236" />
<glyph unicode="&#x2009;" horiz-adv-x="378" />
<glyph unicode="&#x200a;" horiz-adv-x="105" />
<glyph unicode="&#x2010;" horiz-adv-x="661" d="M39 489v179h541v-179h-541z" />
<glyph unicode="&#x2011;" horiz-adv-x="661" d="M39 489v179h541v-179h-541z" />
<glyph unicode="&#x2012;" horiz-adv-x="661" d="M39 489v179h541v-179h-541z" />
<glyph unicode="&#x2013;" horiz-adv-x="1271" d="M106 489v179h1059v-179h-1059z" />
<glyph unicode="&#x2014;" horiz-adv-x="2347" d="M106 489v179h2135v-179h-2135z" />
<glyph unicode="&#x2018;" horiz-adv-x="509" d="M109 1499h178l114 -483h-174z" />
<glyph unicode="&#x2019;" horiz-adv-x="509" d="M109 1016l114 483h178l-118 -483h-174z" />
<glyph unicode="&#x201a;" horiz-adv-x="509" d="M109 -233l114 483h178l-118 -483h-174z" />
<glyph unicode="&#x201c;" horiz-adv-x="837" d="M109 1499h178l114 -483h-174zM436 1499h178l115 -483h-174z" />
<glyph unicode="&#x201d;" horiz-adv-x="837" d="M109 1016l114 483h178l-118 -483h-174zM436 1016l115 483h178l-119 -483h-174z" />
<glyph unicode="&#x201e;" horiz-adv-x="837" d="M109 -207l114 483h178l-118 -483h-174zM436 -207l115 483h178l-119 -483h-174z" />
<glyph unicode="&#x2022;" horiz-adv-x="749" d="M106 778q0 57 22 106.5t57.5 85.5t84.5 57.5t105 21.5q57 0 105 -21.5t84 -57.5t57.5 -85t21.5 -107q0 -55 -21.5 -104t-57.5 -85t-84 -57.5t-105 -21.5q-55 0 -104.5 21.5t-85 57.5t-57.5 85t-22 104z" />
<glyph unicode="&#x2026;" horiz-adv-x="1210" d="M107 8v178h178v-178h-178zM517 8v178h178v-178h-178zM926 8v178h178v-178h-178z" />
<glyph unicode="&#x202f;" horiz-adv-x="378" />
<glyph unicode="&#x2039;" horiz-adv-x="776" d="M109 569l348 467h209l-347 -465l347 -471h-205z" />
<glyph unicode="&#x203a;" horiz-adv-x="776" d="M111 100l346 471l-346 465h208l349 -467l-351 -469h-206z" />
<glyph unicode="&#x205f;" horiz-adv-x="472" />
<glyph unicode="&#x20ac;" horiz-adv-x="1402" d="M106 553v145h156v64q0 47 2 92h-158v145h173q74 520 509 521q285 -8 508 -39v-164q-219 25 -499 26q-274 0 -338 -344h628v-145h-645q-2 -45 -2 -92q0 -33 2 -64h645v-145h-632q57 -371 342 -371q281 4 497 27v-160q-221 -31 -506 -41q-449 0 -514 545h-168z" />
<glyph unicode="&#x2122;" horiz-adv-x="1736" d="M106 1417v109h621v-109h-246v-725h-110v725h-265zM762 694v801q0 33 35 33h125q29 0 43 -31l223 -526l24 -2l220 528q12 29 38 29h129q31 0 31 -31v-801h-110v670h-23l-209 -494q-16 -39 -43 -39h-84q-31 0 -49 39l-215 494h-25v-670h-110z" />
<glyph unicode="&#x25fc;" horiz-adv-x="1105" d="M0 0v1106h1106v-1106h-1106z" />
</font>
</defs>
</svg>
